<?xml version="1.0" encoding="utf-8"?>
<!-- Generator: Adobe Illustrator 19.0.0, SVG Export Plug-In . SVG Version: 6.00 Build 0)  -->
<svg version="1.1" id="Blue" xmlns="http://www.w3.org/2000/svg" xmlns:xlink="http://www.w3.org/1999/xlink" x="0px" y="0px"
	 viewBox="0 0 300 300" style="enable-background:new 0 0 300 300;" xml:space="preserve">
<style type="text/css">
	.st0{fill:#1A6189;}
	.st1{fill:#2574A9;}
	.st2{fill:#63BCB8;}
	.st3{opacity:0.3;fill:#1A6189;}
</style>
<path id="XMLID_156_" class="st0" d="M227.3,21.4c29.8,27.4,48.4,66.7,48.4,110.4c0,82.8-67.2,150-150,150
	c-28.3,0-54.7-7.8-77.3-21.4C75.1,285,110.8,300,150,300c82.8,0,150-67.2,150-150C300,95.4,270.9,47.7,227.3,21.4z"/>
<path id="XMLID_157_" class="st1" d="M275.7,131.8c0-43.7-18.7-82.9-48.4-110.4C204.7,7.8,178.3,0,150,0C67.2,0,0,67.2,0,150
	c0,43.7,18.7,82.9,48.4,110.4c22.6,13.6,49,21.4,77.3,21.4C208.6,281.8,275.7,214.6,275.7,131.8z"/>
<ellipse id="XMLID_158_" class="st1" cx="156.7" cy="98.8" rx="37.2" ry="20.9"/>
<path id="XMLID_159_" class="st2" d="M146.7,205.6c0-9.3-12.2-16.9-27.3-16.9c-15.1,0-27.3,7.6-27.3,16.9c0,0.7,0.1,1.3,0.2,1.9
	c-21.4,2-37.8,13.5-37.8,27.4c0,15.3,20,27.7,44.6,27.7c24.7,0,44.6-12.4,44.6-27.7c0-5.9-2.9-11.3-8-15.8
	C142.5,216,146.7,211.1,146.7,205.6z"/>
<path id="XMLID_160_" class="st2" d="M232.7,24.8c-8.8-1.2-17.9-1.9-27.3-1.9C142.8,23,92.2,51.4,92.2,86.5S142.8,150,205.3,150
	c38.1,0,71.8-10.6,92.3-26.7C290.2,82.2,266.2,47,232.7,24.8z M156.7,119.6c-20.5,0-37.2-9.3-37.2-20.9c0-11.5,16.7-20.9,37.2-20.9
	c20.5,0,37.2,9.3,37.2,20.9C193.9,110.3,177.2,119.6,156.7,119.6z"/>
<path id="XMLID_163_" class="st3" d="M227.3,21.4c29.8,27.4,48.4,66.7,48.4,110.4c0,82.8-67.2,150-150,150
	c-28.3,0-54.7-7.8-77.3-21.4C75.1,285,110.8,300,150,300c82.8,0,150-67.2,150-150C300,95.4,270.9,47.7,227.3,21.4z"/>
</svg>
