<?xml version="1.0" encoding="utf-8"?>
<!-- Generator: Adobe Illustrator 19.0.0, SVG Export Plug-In . SVG Version: 6.00 Build 0)  -->
<svg version="1.1" id="Grey" xmlns="http://www.w3.org/2000/svg" xmlns:xlink="http://www.w3.org/1999/xlink" x="0px" y="0px"
	 viewBox="0 0 300 300" style="enable-background:new 0 0 300 300;" xml:space="preserve">
<style type="text/css">
	.st0{fill:#989899;}
	.st1{fill:#C2C2C2;}
	.st2{fill:#ACBD86;}
	.st3{opacity:0.7;fill:#989899;}
</style>
<path id="XMLID_164_" class="st0" d="M259.7,47.7c13.3,22.4,21,48.6,21,76.5c0,82.8-67.2,150-150,150c-43.3,0-82.3-18.4-109.7-47.7
	c26.1,44,74.1,73.5,129,73.5c82.8,0,150-67.2,150-150C300,110.5,284.7,74.5,259.7,47.7z"/>
<path id="XMLID_166_" class="st1" d="M130.7,274.2c82.8,0,150-67.2,150-150c0-27.9-7.6-54.1-21-76.5C232.3,18.4,193.3,0,150,0
	C67.2,0,0,67.2,0,150c0,27.9,7.6,54.1,21,76.5C48.3,255.8,87.3,274.2,130.7,274.2z"/>
<path id="XMLID_167_" class="st2" d="M200.2,114.9c2.6,0,5.2-0.3,7.7-0.9c2.2,6.3,8.2,10.9,15.3,10.9c9,0,16.2-7.3,16.2-16.2
	c0-6.1-3.3-11.4-8.3-14.2c1.8-4.1,2.7-8.6,2.7-13.4c0-18.7-15.1-33.8-33.7-33.8c-18.6,0-33.7,15.1-33.7,33.8
	S181.6,114.9,200.2,114.9z"/>
<circle id="XMLID_168_" class="st2" cx="106.5" cy="93.8" r="25.8"/>
<path id="XMLID_169_" class="st2" d="M72.3,37c0-4.8-1.3-9.3-3.6-13.1C54.5,33.1,41.9,44.7,31.5,58c4.2,3,9.4,4.8,15,4.8
	C60.8,62.8,72.3,51.3,72.3,37z"/>
<path id="XMLID_176_" class="st2" d="M100.9,189.9c0-30-24.4-54.4-54.4-54.4c-19.4,0-36.5,10.2-46.1,25.5
	c2.2,30.5,13.6,58.5,31.3,81.2c4.7,1.3,9.6,2,14.7,2C76.5,244.3,100.9,220,100.9,189.9z"/>
<circle id="XMLID_177_" class="st2" cx="132.3" cy="249" r="6.6"/>
<circle id="XMLID_178_" class="st2" cx="120.7" cy="234.2" r="6.6"/>
<circle id="XMLID_179_" class="st2" cx="149.7" cy="257.4" r="6.6"/>
<path id="XMLID_180_" class="st2" d="M233.2,186.7c-2.5-28-26-49.9-54.6-49.9c-30.3,0-54.8,24.5-54.8,54.8s24.5,54.8,54.8,54.8
	c7.4,0,14.4-1.5,20.8-4.1c6.1,6.3,14.6,10.2,24.1,10.2c18.6,0,33.6-15.1,33.6-33.6C257.1,203.7,247,190.9,233.2,186.7z"/>
<path id="XMLID_181_" class="st3" d="M259.7,47.7c13.3,22.4,21,48.6,21,76.5c0,82.8-67.2,150-150,150c-43.3,0-82.3-18.4-109.7-47.7
	c26.1,44,74.1,73.5,129,73.5c82.8,0,150-67.2,150-150C300,110.5,284.7,74.5,259.7,47.7z"/>
</svg>
