<?xml version="1.0" encoding="utf-8"?>
<!-- Generator: Adobe Illustrator 19.0.0, SVG Export Plug-In . SVG Version: 6.00 Build 0)  -->
<svg version="1.1" id="Orange" xmlns="http://www.w3.org/2000/svg" xmlns:xlink="http://www.w3.org/1999/xlink" x="0px" y="0px"
	 viewBox="0 0 300 300" style="enable-background:new 0 0 300 300;" xml:space="preserve">
<style type="text/css">
	.st0{fill:#B7532C;}
	.st1{fill:#DD6B38;}
	.st2{fill:#F39C12;}
	.st3{opacity:0.21;fill:#B7532C;}
</style>
<g id="XMLID_149_">
	<path id="XMLID_150_" class="st0" d="M221,17.8c33.9,27.5,55.5,69.5,55.5,116.5c0,82.8-67.2,150-150,150c-25.7,0-49.8-6.5-71-17.8
		C81.3,287.4,114.2,300,150,300c82.8,0,150-67.2,150-150C300,92.8,268,43.1,221,17.8z"/>
	<path id="XMLID_151_" class="st1" d="M276.5,134.3c0-47-21.7-89-55.5-116.5C199.8,6.5,175.7,0,150,0C67.2,0,0,67.2,0,150
		c0,47,21.7,89,55.5,116.5c21.1,11.4,45.3,17.8,71,17.8C209.3,284.3,276.5,217.2,276.5,134.3z"/>
</g>
<path id="XMLID_152_" class="st2" d="M108.7,96.7L108.7,96.7l70.1,0c10.2,0,18.9-8.3,18.9-18.5v0c0-10.2-8.7-18.5-18.9-18.5h-36.1
	v-0.1c0-10.2-8-18.9-18.2-18.9H47.1c-20.9,20-36.2,46-43.1,75h86.4C100.6,115.7,108.7,106.9,108.7,96.7z"/>
<path id="XMLID_153_" class="st2" d="M264,156.7c-10.2,0-18.3,8.2-18.3,18.4v0c0,3,0.5,5.6,1.8,8.6H106.2c-10.2,0-18.5,8-18.5,18.2
	v0c0,10.2,8.3,18.8,18.5,18.8h176.4c10.1-19,16.3-41,17.3-64H264z"/>
<path id="XMLID_154_" class="st2" d="M166.2,285c0,5.3,2.2,10.1,5.8,13.5c27.2-4,52-15.8,72.4-31.8h-59.8
	C174.5,266.7,166.2,274.9,166.2,285z"/>
<path id="XMLID_155_" class="st3" d="M221,17.8c33.9,27.5,55.5,69.5,55.5,116.5c0,82.8-67.2,150-150,150c-25.7,0-49.8-6.5-71-17.8
	C81.3,287.4,114.2,300,150,300c82.8,0,150-67.2,150-150C300,92.8,268,43.1,221,17.8z"/>
</svg>
