<?xml version="1.0" encoding="utf-8"?>
<!-- Generator: Adobe Illustrator 19.0.0, SVG Export Plug-In . SVG Version: 6.00 Build 0)  -->
<svg version="1.1" id="Layer_1" xmlns="http://www.w3.org/2000/svg" xmlns:xlink="http://www.w3.org/1999/xlink" x="0px" y="0px"
	 viewBox="0 0 97.5 74.9" style="enable-background:new 0 0 97.5 74.9;" xml:space="preserve">
<style type="text/css">
	.st0{fill:#CBCBCB;}
	.st1{fill:#F2F2F2;}
	.st2{fill:#802B2B;}
	.st3{fill:#AC3939;}
	.st4{fill:#8EA8AD;}
	.st5{fill:#BDD6DB;}
	.st6{fill:#4A3C55;}
	.st7{fill:#C44D4D;}
	.st8{fill:#D3E1E7;}
	.st9{fill:#BF9900;}
	.st10{fill:#ECBD02;}
	.st11{fill:#FFCC00;}
</style>
<path class="st0" d="M46.7,2H46l-5.9,13l-0.3,0.3l-1.4-1.4l5.8-12.7c0.1-0.4,0.4-0.7,0.8-0.9C45.3,0.1,45.6,0,46,0h0.7V2 M27.3,63.6
	l9.4,9.3h24.3l9.4-9.3l0.8,2l-8.8,8.8c-0.4,0.4-0.9,0.6-1.4,0.6H36.6c-0.6,0-1-0.2-1.4-0.6l-8.8-8.8L27.3,63.6 M57.3,15L51.5,2h-0.7
	V0h0.7c0.4,0,0.8,0.1,1.1,0.3l0.8,0.9L59,13.9L57.3,15"/>
<path class="st1" d="M57.3,15l19.1,42.4L73,60.8l-2.8,2.8l-9.4,9.3H36.6l-9.4-9.3l-2.8-2.8L21,57.3L40.1,15L46,2h0.7L30.3,53.9
	l6.5,11.8h24l6.5-11.8L50.8,2h0.7L57.3,15"/>
<path class="st2" d="M46.7,2V0h4v2H46.7 M92.4,53.3l4.6,5.4c0.3,0.4,0.5,0.8,0.5,1.3v4.7c0,0.6-0.2,1-0.6,1.4
	c-0.4,0.4-0.9,0.6-1.4,0.6h-5.3h-0.3l0.3-2h5.3v-4.7l-3.6-4.3L92.4,53.3 M7.6,66.7l-0.4,0.1H2c-0.6,0-1-0.2-1.4-0.6
	C0.2,65.8,0,65.3,0,64.8v-4.7c0-0.5,0.2-0.9,0.5-1.3L5,53.4l0.6,2.4L2,60.1v4.7h5.3L7.6,66.7"/>
<path class="st3" d="M50.8,2l16.5,51.9l-6.5,11.8h-24l-6.5-11.8L46.7,2H50.8 M40,33.1l-0.3,1h18l-0.3-1L51,10.8h-4.6L40,33.1
	L40,33.1 M91,60.8l0.9-5l3.6,4.3v4.7h-5.3l0.3-1.2L91,60.8 M7,63.6l0.3,1.2H2v-4.7l3.6-4.3l0.9,5L7,63.6"/>
<path class="st4" d="M38.5,13.9l1.4,1.4l-7,8.3L5.6,55.8L5,53.4L38.5,13.9 M57.3,15l1.7-1l33.4,39.4l-0.5,2.5L64.5,23.6L57.3,15"/>
<path class="st5" d="M57.3,15l7.3,8.6l16.2,33.6l-3.6,3.6H73l3.4-3.5L57.3,15 M39.9,15.3l0.3-0.3L21,57.3l3.5,3.5h-4.1l-3.6-3.6
	l16.1-33.6L39.9,15.3"/>
<path class="st6" d="M57.5,33.1l0.3,1h-18l0.3-1l6.4-20.3H51L57.5,33.1"/>
<path class="st7" d="M57.5,33.1L51,12.8h-4.6L40,33.1h0l6.5-22.3H51L57.5,33.1"/>
<path class="st8" d="M64.5,23.6l27.3,32.3l-0.9,5H77.1l3.6-3.6L64.5,23.6 M5.6,55.8l27.3-32.3L16.8,57.2l3.6,3.6H6.5L5.6,55.8"/>
<path class="st9" d="M89.9,66.8l-0.8-0.3l-0.7-0.8H71l-0.8-2h4.1h16.1l-0.3,1.2L89.9,66.8 M26.4,65.6H9.1l-0.8,0.8l-0.7,0.3
	l-0.4-1.9L7,63.6h16.1h4.1L26.4,65.6"/>
<path class="st10" d="M24.5,60.8l2.8,2.8h-4.1l-2.8-2.8H24.5 M70.2,63.6l2.8-2.8h4.1l-2.8,2.8H70.2"/>
<path class="st11" d="M77.1,60.8H91l-0.5,2.8H74.4L77.1,60.8 M23.1,63.6H7l-0.5-2.8h13.9L23.1,63.6"/>
</svg>
